<?xml version="1.0" encoding="UTF-8"?>
<svg id="Layer_1" data-name="Layer 1" xmlns="http://www.w3.org/2000/svg" viewBox="0 0 31.9 31.96">
  <defs>
    <style>
      .cls-1, .cls-2, .cls-3 {
        stroke: #000;
        stroke-miterlimit: 10;
        stroke-width: .5px;
      }

      .cls-2 {
        fill: #fff;
      }

      .cls-3 {
        fill: #d3d3d3;
      }
    </style>
  </defs>
  <polygon class="cls-2" points="6.53 22.26 6.53 28.54 12.81 31.68 19.09 28.54 19.09 22.26 12.81 19.12 6.53 22.26"/>
  <polygon class="cls-3" points="12.81 12.84 12.81 19.12 19.09 22.26 25.37 19.12 25.37 12.84 19.09 9.7 12.81 12.84"/>
  <polygon class="cls-3" points="19.09 22.26 19.09 28.54 25.37 31.68 31.65 28.54 31.65 22.26 25.37 19.12 19.09 22.26"/>
  <polygon class="cls-3" points=".25 12.84 .25 19.12 6.53 22.26 12.81 19.12 12.81 12.84 6.53 9.7 .25 12.84"/>
  <polygon class="cls-1" points="6.53 3.42 6.53 9.7 12.81 12.84 19.09 9.7 19.09 3.42 12.81 .28 6.53 3.42"/>
</svg>